<?xml version="1.0" standalone="no"?>
<!DOCTYPE svg PUBLIC "-//W3C//DTD SVG 20010904//EN"
 "http://www.w3.org/TR/2001/REC-SVG-20010904/DTD/svg10.dtd">
<svg version="1.0" xmlns="http://www.w3.org/2000/svg"
 width="1080.000000pt" height="1080.000000pt" viewBox="0 0 1080.000000 1080.000000"
 preserveAspectRatio="xMidYMid meet">

<g transform="translate(0.000000,1080.000000) scale(0.100000,-0.100000)"
fill="#000000" stroke="none">
<path d="M8098 9943 c7 -3 16 -2 19 1 4 3 -2 6 -13 5 -11 0 -14 -3 -6 -6z"/>
<path d="M2778 9303 c7 -3 16 -2 19 1 4 3 -2 6 -13 5 -11 0 -14 -3 -6 -6z"/>
<path d="M2958 9273 c7 -3 16 -2 19 1 4 3 -2 6 -13 5 -11 0 -14 -3 -6 -6z"/>
<path d="M1732 9115 c0 -16 2 -22 5 -12 2 9 2 23 0 30 -3 6 -5 -1 -5 -18z"/>
<path d="M7560 8748 c41 -45 50 -53 50 -45 0 2 -21 23 -47 47 l-48 45 45 -47z"/>
<path d="M7666 8640 c84 -91 93 -101 173 -200 88 -108 182 -245 231 -337 18
-34 38 -59 43 -56 6 3 7 1 3 -5 -4 -6 3 -31 15 -54 14 -27 24 -37 26 -28 5 17
13 38 38 93 9 20 13 42 9 49 -4 6 -3 8 2 5 6 -3 15 7 21 24 8 21 8 27 0 22 -7
-4 -8 0 -3 13 4 10 4 15 0 12 -3 -4 -33 24 -66 61 -34 38 -75 74 -94 81 -19 8
-34 17 -34 22 0 12 -72 39 -89 33 -9 -3 -12 -3 -9 1 8 7 -62 85 -71 79 -11 -6
-61 52 -61 71 0 9 -3 14 -7 10 -4 -3 -45 31 -92 76 -47 46 -63 58 -35 28z"/>
<path d="M3166 8423 c-6 -14 -5 -15 5 -6 7 7 10 15 7 18 -3 3 -9 -2 -12 -12z"/>
<path d="M3141 8411 c-1 -8 -11 -26 -23 -40 l-22 -26 28 26 c16 15 26 33 23
40 -4 11 -6 11 -6 0z"/>
<path d="M1821 8364 c0 -11 3 -14 6 -6 3 7 2 16 -1 19 -3 4 -6 -2 -5 -13z"/>
<path d="M3083 8343 c4 -3 -1 -16 -10 -27 -18 -21 -18 -21 4 -2 20 16 23 36 6
36 -4 0 -3 -3 0 -7z"/>
<path d="M3023 8255 c-17 -19 -28 -35 -23 -35 4 0 20 16 34 35 15 19 25 35 23
35 -2 0 -17 -16 -34 -35z"/>
<path d="M2975 8190 c-10 -11 -16 -22 -14 -24 2 -2 12 7 22 20 22 29 17 32 -8
4z"/>
<path d="M2918 8098 c-22 -34 -42 -74 -31 -63 14 15 55 85 50 85 -3 0 -11 -10
-19 -22z"/>
<path d="M6549 8097 c-119 -45 -193 -153 -193 -282 0 -120 56 -210 166 -265
84 -41 152 -41 236 1 65 32 99 66 135 133 32 59 31 191 -1 261 -28 60 -73 110
-127 137 -50 26 -165 34 -216 15z"/>
<path d="M2860 8001 c0 -7 -4 -9 -10 -6 -6 3 -10 -4 -10 -17 l0 -22 16 22 c9
13 13 26 10 29 -3 4 -6 1 -6 -6z"/>
<path d="M2816 7942 c-3 -5 1 -9 9 -9 8 0 15 4 15 9 0 4 -4 8 -9 8 -6 0 -12
-4 -15 -8z"/>
<path d="M4174 7921 c-59 -27 -118 -84 -145 -139 -31 -65 -33 -187 -3 -253 50
-107 140 -169 250 -169 88 0 150 25 205 81 62 64 83 125 77 228 -7 125 -72
218 -181 258 -51 18 -156 15 -203 -6z"/>
<path d="M2795 7910 c-3 -5 1 -10 9 -10 9 0 16 5 16 10 0 6 -4 10 -9 10 -6 0
-13 -4 -16 -10z"/>
<path d="M2763 7818 c-19 -25 -24 -38 -14 -38 11 0 35 39 28 46 -2 3 -9 -1
-14 -8z"/>
<path d="M2723 7719 c-2 -23 3 -25 10 -4 4 8 3 16 -1 19 -4 3 -9 -4 -9 -15z"/>
<path d="M2706 7665 c-3 -9 -6 -22 -5 -28 0 -7 5 -1 10 12 5 13 8 26 5 28 -2
2 -6 -3 -10 -12z"/>
<path d="M2675 7583 c4 -14 2 -23 -4 -23 -6 0 -11 -12 -10 -27 0 -26 1 -26 16
10 12 31 13 41 3 50 -10 10 -11 7 -5 -10z"/>
<path d="M5660 7429 c-729 -50 -734 -50 -809 -135 -74 -84 -76 -196 -5 -288
18 -24 98 -100 177 -169 79 -69 179 -163 221 -209 97 -103 270 -308 265 -312
-2 -1 -33 -10 -69 -18 -85 -21 -153 -52 -334 -155 -162 -92 -345 -186 -442
-226 -206 -87 -464 -107 -701 -56 -102 22 -258 72 -279 90 -8 7 -16 10 -18 8
-2 -2 14 -63 34 -134 147 -508 452 -990 838 -1323 175 -151 340 -274 437 -324
l79 -41 491 -10 c348 -6 503 -6 531 2 141 38 461 338 661 619 239 336 423 737
527 1149 36 142 80 383 70 383 -2 0 -41 -28 -86 -62 -105 -77 -240 -142 -365
-174 -87 -22 -113 -25 -223 -21 -144 5 -194 19 -460 124 -366 145 -456 173
-562 176 -32 1 -58 5 -58 9 0 13 102 182 167 276 79 114 147 196 280 335 57
60 115 129 130 155 66 112 5 261 -131 323 -45 21 -152 23 -366 8z m726 -2404
c27 -13 71 -43 99 -66 27 -22 67 -50 88 -60 l38 -20 -23 -32 c-100 -140 -327
-379 -462 -486 -132 -104 -174 -118 -246 -81 -97 50 -121 155 -76 331 68 262
182 399 356 428 106 17 172 13 226 -14z m-1193 -83 c96 -42 183 -163 238 -327
48 -146 21 -286 -73 -370 -35 -32 -45 -36 -76 -31 -88 14 -297 138 -477 283
-102 82 -205 184 -205 202 0 5 33 37 73 69 39 33 90 79 112 102 73 76 144 101
275 96 59 -2 100 -10 133 -24z"/>
<path d="M2599 7411 c17 -30 28 -33 34 -9 4 12 4 24 2 27 -3 2 -5 -1 -5 -8 0
-9 -5 -9 -21 -1 -19 11 -20 10 -10 -9z"/>
<path d="M2282 5485 c0 -16 2 -22 5 -12 2 9 2 23 0 30 -3 6 -5 -1 -5 -18z"/>
<path d="M10215 4239 c-55 -5 -212 -25 -350 -44 -137 -19 -340 -46 -450 -61
l-200 -26 -1143 -3 c-629 -2 -1145 -5 -1147 -7 -2 -1 -1 -16 2 -31 5 -26 8
-28 39 -22 26 4 34 3 34 -9 0 -9 -8 -20 -17 -25 -45 -26 -47 -29 -34 -45 16
-19 7 -36 -17 -31 -15 2 -17 -3 -14 -33 4 -32 3 -35 -10 -24 -17 14 -28 6 -28
-20 0 -10 -4 -18 -10 -18 -5 0 -10 -11 -10 -25 0 -19 -5 -25 -21 -25 -19 0
-21 -4 -16 -34 6 -37 -3 -45 -51 -47 l-27 -1 25 -8 c24 -8 24 -8 3 -9 -19 -1
-23 -7 -23 -31 0 -27 -3 -30 -30 -30 -25 0 -30 -4 -30 -25 0 -14 5 -25 10 -25
6 0 10 -18 10 -39 0 -36 -3 -40 -27 -43 -30 -3 -30 -4 -15 -75 8 -36 7 -42 -9
-46 -12 -3 -19 -14 -19 -31 0 -20 -4 -24 -17 -19 -17 7 -17 6 0 -20 26 -40 23
-65 -8 -59 -28 5 -33 -9 -10 -32 8 -8 15 -31 15 -51 0 -32 -3 -37 -19 -32 -16
4 -20 -1 -23 -27 -2 -23 -7 -30 -20 -28 -14 2 -18 -4 -18 -33 0 -28 -5 -38
-20 -42 -12 -3 -20 -14 -21 -27 -3 -54 -5 -61 -19 -61 -25 0 -42 -42 -35 -86
6 -35 5 -39 -14 -39 -14 0 -21 -6 -21 -18 0 -10 -5 -23 -12 -30 -9 -9 -4 -12
22 -13 32 -1 33 -2 10 -9 -75 -21 -71 -17 -64 -81 6 -56 5 -59 -15 -59 -19 0
-21 -5 -21 -65 0 -58 -2 -65 -20 -65 -18 0 -20 -7 -20 -60 0 -55 -2 -61 -25
-70 -25 -9 -25 -10 -25 -135 0 -118 -1 -125 -20 -125 -18 0 -20 -7 -20 -60 0
-54 -2 -60 -21 -60 -19 0 -20 -5 -18 -127 l1 -128 -24 3 -24 3 4 -86 c3 -70 2
-85 -11 -85 -16 0 -27 -58 -27 -147 0 -48 -3 -54 -25 -63 -24 -9 -25 -13 -25
-90 0 -73 -2 -80 -20 -80 -23 0 -22 4 -20 -116 l2 -91 -32 -7 c-26 -5 -31 -9
-24 -23 11 -23 17 -197 9 -240 -4 -24 -11 -33 -25 -33 -18 0 -20 -7 -20 -74 0
-41 5 -78 10 -81 6 -3 10 -17 10 -31 0 -19 -5 -24 -24 -24 -15 0 -26 -7 -29
-20 -4 -15 0 -20 14 -20 12 0 19 -7 19 -20 0 -11 5 -20 10 -20 6 0 10 -11 10
-25 0 -14 -4 -25 -10 -25 -5 0 -10 -17 -10 -39 0 -29 -5 -40 -18 -43 -15 -4
-17 -13 -12 -64 3 -40 9 -58 18 -57 6 2 12 -6 12 -17 0 -11 -7 -20 -15 -20 -9
0 -15 -9 -15 -25 l0 -25 1686 2 1686 3 54 200 c52 190 145 526 219 790 19 66
41 145 49 175 39 148 80 296 140 515 111 399 127 458 142 515 8 30 30 109 49
175 33 119 72 268 179 685 64 248 104 398 186 705 76 283 120 457 120 473 0
13 -15 14 -165 1z m-3255 -169 c0 -11 -4 -20 -9 -20 -5 0 -7 9 -4 20 3 11 7
20 9 20 2 0 4 -9 4 -20z m37 14 c-3 -3 -12 -4 -19 -1 -8 3 -5 6 6 6 11 1 17
-2 13 -5z m-37 -220 c0 -2 -7 -4 -15 -4 -8 0 -15 4 -15 10 0 5 7 7 15 4 8 -4
15 -8 15 -10z m-73 -86 c-3 -8 -6 -5 -6 6 -1 11 2 17 5 13 3 -3 4 -12 1 -19z
m-927 -3408 c0 -5 -2 -10 -4 -10 -3 0 -8 5 -11 10 -3 6 -1 10 4 10 6 0 11 -4
11 -10z"/>
<path d="M6894 4084 c3 -9 6 -20 6 -25 0 -5 5 -9 10 -9 7 0 7 6 1 19 -6 10 -7
21 -4 25 3 3 1 6 -6 6 -8 0 -11 -6 -7 -16z"/>
<path d="M6860 4065 c0 -8 4 -15 10 -15 5 0 7 7 4 15 -4 8 -8 15 -10 15 -2 0
-4 -7 -4 -15z"/>
<path d="M6921 4014 c0 -11 3 -14 6 -6 3 7 2 16 -1 19 -3 4 -6 -2 -5 -13z"/>
<path d="M6465 3000 c4 -6 11 -8 16 -5 14 9 11 15 -7 15 -8 0 -12 -5 -9 -10z"/>
</g>
</svg>
